<mxfile host="Electron" agent="Mozilla/5.0 (Macintosh; Intel Mac OS X 10_15_7) AppleWebKit/537.36 (KHTML, like Gecko) draw.io/24.7.17 Chrome/128.0.6613.36 Electron/32.0.1 Safari/537.36" version="24.7.17">
  <diagram name="Page-1" id="0_-_a3WUVpLAPQEfZTsn">
    <mxGraphModel dx="1272" dy="899" grid="1" gridSize="10" guides="1" tooltips="1" connect="1" arrows="1" fold="1" page="1" pageScale="1" pageWidth="827" pageHeight="1169" math="1" shadow="0">
      <root>
        <mxCell id="0" />
        <mxCell id="1" parent="0" />
        <mxCell id="_CMiZezSvA6A_bbTY-Fj-1" value="" style="rounded=1;whiteSpace=wrap;html=1;fillColor=#F0F0F0;strokeColor=#A6A6A6;strokeWidth=4;arcSize=5;" parent="1" vertex="1">
          <mxGeometry x="120" y="250" width="300" height="300" as="geometry" />
        </mxCell>
        <mxCell id="_CMiZezSvA6A_bbTY-Fj-3" value="&lt;font style=&quot;font-size: 20px;&quot;&gt;(a)&lt;/font&gt;" style="text;html=1;align=center;verticalAlign=middle;whiteSpace=wrap;rounded=0;" parent="1" vertex="1">
          <mxGeometry x="235" y="603" width="70" height="30" as="geometry" />
        </mxCell>
        <mxCell id="_CMiZezSvA6A_bbTY-Fj-8" value="" style="endArrow=classic;html=1;rounded=0;strokeWidth=3;exitX=0.5;exitY=0;exitDx=0;exitDy=0;entryX=0.5;entryY=1;entryDx=0;entryDy=0;" parent="1" edge="1" target="SYMjh8xkVhT-ZyL8IstS-3" source="SYMjh8xkVhT-ZyL8IstS-2">
          <mxGeometry width="50" height="50" relative="1" as="geometry">
            <mxPoint x="270" y="460" as="sourcePoint" />
            <mxPoint x="480" y="400" as="targetPoint" />
          </mxGeometry>
        </mxCell>
        <mxCell id="_CMiZezSvA6A_bbTY-Fj-12" value="" style="endArrow=classic;html=1;rounded=0;strokeWidth=3;" parent="1" edge="1">
          <mxGeometry width="50" height="50" relative="1" as="geometry">
            <mxPoint x="270" y="570" as="sourcePoint" />
            <mxPoint x="269.5" y="520" as="targetPoint" />
          </mxGeometry>
        </mxCell>
        <mxCell id="_CMiZezSvA6A_bbTY-Fj-15" value="" style="endArrow=classic;html=1;rounded=0;strokeWidth=3;entryX=0;entryY=0.5;entryDx=0;entryDy=0;" parent="1" edge="1" target="SYMjh8xkVhT-ZyL8IstS-9">
          <mxGeometry width="50" height="50" relative="1" as="geometry">
            <mxPoint x="680" y="439" as="sourcePoint" />
            <mxPoint x="680" y="350" as="targetPoint" />
            <Array as="points">
              <mxPoint x="520" y="439" />
              <mxPoint x="520" y="345" />
            </Array>
          </mxGeometry>
        </mxCell>
        <mxCell id="_CMiZezSvA6A_bbTY-Fj-16" value="" style="endArrow=classic;html=1;rounded=0;strokeWidth=3;" parent="1" edge="1">
          <mxGeometry width="50" height="50" relative="1" as="geometry">
            <mxPoint x="269.5" y="279" as="sourcePoint" />
            <mxPoint x="269.5" y="219" as="targetPoint" />
          </mxGeometry>
        </mxCell>
        <mxCell id="_CMiZezSvA6A_bbTY-Fj-19" value="&lt;font style=&quot;font-size: 20px;&quot;&gt;(b)&lt;/font&gt;" style="text;html=1;align=center;verticalAlign=middle;whiteSpace=wrap;rounded=0;" parent="1" vertex="1">
          <mxGeometry x="650" y="603" width="70" height="30" as="geometry" />
        </mxCell>
        <mxCell id="_CMiZezSvA6A_bbTY-Fj-20" value="&lt;font style=&quot;font-size: 20px;&quot;&gt;Embedding&lt;/font&gt;" style="rounded=1;whiteSpace=wrap;html=1;strokeWidth=3;fillColor=#ffe6cc;strokeColor=#d79b00;" parent="1" vertex="1">
          <mxGeometry x="560" y="533" width="240" height="48" as="geometry" />
        </mxCell>
        <mxCell id="_CMiZezSvA6A_bbTY-Fj-30" value="&lt;font style=&quot;font-size: 20px;&quot;&gt;Block 1&lt;/font&gt;" style="rounded=1;whiteSpace=wrap;html=1;strokeWidth=3;fillColor=#f0f0f0;strokeColor=#a6a6a6;" parent="1" vertex="1">
          <mxGeometry x="560" y="369" width="240" height="46" as="geometry" />
        </mxCell>
        <mxCell id="_CMiZezSvA6A_bbTY-Fj-31" value="&lt;font style=&quot;font-size: 20px;&quot;&gt;Positional encoding&lt;/font&gt;&lt;div&gt;&lt;font style=&quot;font-size: 20px;&quot;&gt;(optional)&lt;/font&gt;&lt;/div&gt;" style="rounded=1;whiteSpace=wrap;html=1;strokeWidth=3;fillColor=#e1d5e7;strokeColor=#9673a6;" parent="1" vertex="1">
          <mxGeometry x="560" y="454" width="240" height="60" as="geometry" />
        </mxCell>
        <mxCell id="_CMiZezSvA6A_bbTY-Fj-32" value="" style="endArrow=classic;html=1;rounded=0;strokeWidth=3;exitX=0.5;exitY=0;exitDx=0;exitDy=0;entryX=0.5;entryY=1;entryDx=0;entryDy=0;" parent="1" source="_CMiZezSvA6A_bbTY-Fj-20" target="_CMiZezSvA6A_bbTY-Fj-31" edge="1">
          <mxGeometry width="50" height="50" relative="1" as="geometry">
            <mxPoint x="689.5" y="602" as="sourcePoint" />
            <mxPoint x="689.5" y="562" as="targetPoint" />
          </mxGeometry>
        </mxCell>
        <mxCell id="_CMiZezSvA6A_bbTY-Fj-36" value="&lt;font style=&quot;font-size: 20px;&quot;&gt;Linear&lt;/font&gt;" style="rounded=1;whiteSpace=wrap;html=1;strokeWidth=3;fillColor=#dae8fc;strokeColor=#6c8ebf;" parent="1" vertex="1">
          <mxGeometry x="560" y="206" width="240" height="42" as="geometry" />
        </mxCell>
        <mxCell id="_CMiZezSvA6A_bbTY-Fj-37" value="" style="endArrow=classic;html=1;rounded=0;strokeWidth=3;entryX=0.5;entryY=1;entryDx=0;entryDy=0;exitX=0.5;exitY=0;exitDx=0;exitDy=0;" parent="1" source="_CMiZezSvA6A_bbTY-Fj-42" target="_CMiZezSvA6A_bbTY-Fj-36" edge="1">
          <mxGeometry width="50" height="50" relative="1" as="geometry">
            <mxPoint x="680" y="262" as="sourcePoint" />
            <mxPoint x="680" y="242" as="targetPoint" />
          </mxGeometry>
        </mxCell>
        <mxCell id="_CMiZezSvA6A_bbTY-Fj-39" value="&lt;span style=&quot;font-size: 20px;&quot;&gt;&lt;b&gt;. . .&lt;/b&gt;&lt;/span&gt;" style="text;html=1;align=center;verticalAlign=middle;whiteSpace=wrap;rounded=0;" parent="1" vertex="1">
          <mxGeometry x="700" y="330" width="60" height="30" as="geometry" />
        </mxCell>
        <mxCell id="_CMiZezSvA6A_bbTY-Fj-42" value="&lt;font style=&quot;font-size: 20px;&quot;&gt;Block N&lt;/font&gt;" style="rounded=1;whiteSpace=wrap;html=1;strokeWidth=3;fillColor=#f0f0f0;strokeColor=#a6a6a6;" parent="1" vertex="1">
          <mxGeometry x="560" y="270" width="240" height="45" as="geometry" />
        </mxCell>
        <mxCell id="SYMjh8xkVhT-ZyL8IstS-2" value="&lt;font style=&quot;font-size: 20px;&quot;&gt;Transformer layer&lt;/font&gt;" style="rounded=1;whiteSpace=wrap;html=1;strokeWidth=3;fillColor=#b0e3e6;strokeColor=#0e8088;" vertex="1" parent="1">
          <mxGeometry x="150" y="459" width="240" height="60" as="geometry" />
        </mxCell>
        <mxCell id="SYMjh8xkVhT-ZyL8IstS-3" value="&lt;font style=&quot;font-size: 20px;&quot;&gt;Transformer layer&lt;/font&gt;" style="rounded=1;whiteSpace=wrap;html=1;strokeWidth=3;fillColor=#b0e3e6;strokeColor=#0e8088;" vertex="1" parent="1">
          <mxGeometry x="150" y="369" width="240" height="60" as="geometry" />
        </mxCell>
        <mxCell id="SYMjh8xkVhT-ZyL8IstS-4" value="&lt;font style=&quot;font-size: 20px;&quot;&gt;Transformer layer&lt;/font&gt;" style="rounded=1;whiteSpace=wrap;html=1;strokeWidth=3;fillColor=#b0e3e6;strokeColor=#0e8088;" vertex="1" parent="1">
          <mxGeometry x="150" y="279" width="240" height="60" as="geometry" />
        </mxCell>
        <mxCell id="SYMjh8xkVhT-ZyL8IstS-5" value="" style="endArrow=classic;html=1;rounded=0;strokeWidth=3;exitX=0.5;exitY=0;exitDx=0;exitDy=0;entryX=0.5;entryY=1;entryDx=0;entryDy=0;" edge="1" parent="1" source="SYMjh8xkVhT-ZyL8IstS-3" target="SYMjh8xkVhT-ZyL8IstS-4">
          <mxGeometry width="50" height="50" relative="1" as="geometry">
            <mxPoint x="280" y="469" as="sourcePoint" />
            <mxPoint x="280" y="439" as="targetPoint" />
          </mxGeometry>
        </mxCell>
        <mxCell id="SYMjh8xkVhT-ZyL8IstS-7" value="" style="endArrow=classic;html=1;rounded=0;strokeWidth=3;exitX=0.5;exitY=0;exitDx=0;exitDy=0;entryX=0.5;entryY=1;entryDx=0;entryDy=0;" edge="1" parent="1" source="_CMiZezSvA6A_bbTY-Fj-30" target="_CMiZezSvA6A_bbTY-Fj-42">
          <mxGeometry width="50" height="50" relative="1" as="geometry">
            <mxPoint x="680" y="362" as="sourcePoint" />
            <mxPoint x="680" y="331" as="targetPoint" />
          </mxGeometry>
        </mxCell>
        <mxCell id="SYMjh8xkVhT-ZyL8IstS-8" value="" style="endArrow=classic;html=1;rounded=0;strokeWidth=3;exitX=0.5;exitY=0;exitDx=0;exitDy=0;entryX=0.5;entryY=1;entryDx=0;entryDy=0;" edge="1" parent="1" target="_CMiZezSvA6A_bbTY-Fj-30">
          <mxGeometry width="50" height="50" relative="1" as="geometry">
            <mxPoint x="680" y="452" as="sourcePoint" />
            <mxPoint x="680" y="421" as="targetPoint" />
          </mxGeometry>
        </mxCell>
        <mxCell id="SYMjh8xkVhT-ZyL8IstS-9" value="&lt;font size=&quot;1&quot; style=&quot;&quot;&gt;&lt;b style=&quot;font-size: 23px;&quot;&gt;+&lt;/b&gt;&lt;/font&gt;" style="ellipse;whiteSpace=wrap;html=1;strokeWidth=3;" vertex="1" parent="1">
          <mxGeometry x="670" y="335" width="20" height="20" as="geometry" />
        </mxCell>
      </root>
    </mxGraphModel>
  </diagram>
</mxfile>
